<svg width="43" height="37" viewBox="0 0 43 37" fill="none" xmlns="http://www.w3.org/2000/svg">
<mask id="path-1-outside-1" maskUnits="userSpaceOnUse" x="0.23999" y="-0.312988" width="43" height="37" fill="black">
<rect fill="white" x="0.23999" y="-0.312988" width="43" height="37"/>
<path fill-rule="evenodd" clip-rule="evenodd" d="M12.8198 3.21172C12.3617 1.99011 13.2647 0.686982 14.5694 0.686982C15.1082 0.686982 15.6209 0.919589 15.9757 1.32511L27.8225 14.8644H17.1895L12.8198 3.21172ZM1.23999 24.7771V12.0399C1.23999 11.1202 2.35196 10.6596 3.00229 11.31L6.55674 14.8644H38.4557C40.4132 14.8644 42 16.4513 42 18.4088C42 20.3663 40.4132 21.9531 38.4557 21.9531H27.8225L15.9757 35.4923C15.6209 35.8978 15.1082 36.1304 14.5694 36.1304C13.2647 36.1304 12.3617 34.8273 12.8198 33.6057L17.1895 21.9531H6.55657V21.9528L3.00229 25.5071C2.35196 26.1574 1.23999 25.6968 1.23999 24.7771Z"/>
</mask>
<path fill-rule="evenodd" clip-rule="evenodd" d="M12.8198 3.21172C12.3617 1.99011 13.2647 0.686982 14.5694 0.686982C15.1082 0.686982 15.6209 0.919589 15.9757 1.32511L27.8225 14.8644H17.1895L12.8198 3.21172ZM1.23999 24.7771V12.0399C1.23999 11.1202 2.35196 10.6596 3.00229 11.31L6.55674 14.8644H38.4557C40.4132 14.8644 42 16.4513 42 18.4088C42 20.3663 40.4132 21.9531 38.4557 21.9531H27.8225L15.9757 35.4923C15.6209 35.8978 15.1082 36.1304 14.5694 36.1304C13.2647 36.1304 12.3617 34.8273 12.8198 33.6057L17.1895 21.9531H6.55657V21.9528L3.00229 25.5071C2.35196 26.1574 1.23999 25.6968 1.23999 24.7771Z" fill="url(#paint0_linear)"/>
<path fill-rule="evenodd" clip-rule="evenodd" d="M12.8198 3.21172C12.3617 1.99011 13.2647 0.686982 14.5694 0.686982C15.1082 0.686982 15.6209 0.919589 15.9757 1.32511L27.8225 14.8644H17.1895L12.8198 3.21172ZM1.23999 24.7771V12.0399C1.23999 11.1202 2.35196 10.6596 3.00229 11.31L6.55674 14.8644H38.4557C40.4132 14.8644 42 16.4513 42 18.4088C42 20.3663 40.4132 21.9531 38.4557 21.9531H27.8225L15.9757 35.4923C15.6209 35.8978 15.1082 36.1304 14.5694 36.1304C13.2647 36.1304 12.3617 34.8273 12.8198 33.6057L17.1895 21.9531H6.55657V21.9528L3.00229 25.5071C2.35196 26.1574 1.23999 25.6968 1.23999 24.7771Z" fill="#007AFF"/>
<path d="M12.8198 3.21172L13.159 3.08451L13.159 3.08451L12.8198 3.21172ZM15.9757 1.32511L16.2484 1.08652L16.2484 1.08652L15.9757 1.32511ZM27.8225 14.8644V15.2267H28.621L28.0952 14.6258L27.8225 14.8644ZM17.1895 14.8644L16.8503 14.9916L16.9384 15.2267H17.1895V14.8644ZM3.00229 11.31L3.25848 11.0538L3.25848 11.0538L3.00229 11.31ZM6.55674 14.8644L6.30055 15.1206L6.40666 15.2267H6.55674V14.8644ZM27.8225 21.9531V21.5908H27.6581L27.5498 21.7145L27.8225 21.9531ZM15.9757 35.4923L16.2484 35.7309L16.2484 35.7309L15.9757 35.4923ZM12.8198 33.6057L13.159 33.7329L13.159 33.7329L12.8198 33.6057ZM17.1895 21.9531L17.5287 22.0803L17.7123 21.5908H17.1895V21.9531ZM6.55657 21.9531H6.19426V22.3154H6.55657V21.9531ZM6.55657 21.9528H6.91888V21.0781L6.30038 21.6966L6.55657 21.9528ZM3.00229 25.5071L3.25848 25.7633L3.25848 25.7633L3.00229 25.5071ZM14.5694 0.324671C13.0118 0.324671 11.9336 1.88046 12.4805 3.33894L13.159 3.08451C12.7897 2.09975 13.5177 1.04929 14.5694 1.04929V0.324671ZM16.2484 1.08652C15.8247 0.602378 15.2127 0.324671 14.5694 0.324671V1.04929C15.0038 1.04929 15.417 1.2368 15.703 1.56369L16.2484 1.08652ZM28.0952 14.6258L16.2484 1.08652L15.703 1.56369L27.5499 15.1029L28.0952 14.6258ZM17.1895 15.2267H27.8225V14.5021H17.1895V15.2267ZM12.4805 3.33894L16.8503 14.9916L17.5287 14.7371L13.159 3.08451L12.4805 3.33894ZM0.877675 12.0399V24.7771H1.6023V12.0399H0.877675ZM3.25848 11.0538C2.37991 10.1752 0.877675 10.7974 0.877675 12.0399H1.6023C1.6023 11.443 2.32401 11.1441 2.7461 11.5662L3.25848 11.0538ZM6.81293 14.6082L3.25848 11.0538L2.7461 11.5662L6.30055 15.1206L6.81293 14.6082ZM38.4557 14.5021H6.55674V15.2267H38.4557V14.5021ZM42.3623 18.4088C42.3623 16.2512 40.6133 14.5021 38.4557 14.5021V15.2267C40.2131 15.2267 41.6377 16.6514 41.6377 18.4088H42.3623ZM38.4557 22.3154C40.6133 22.3154 42.3623 20.5664 42.3623 18.4088H41.6377C41.6377 20.1662 40.2131 21.5908 38.4557 21.5908V22.3154ZM27.8225 22.3154H38.4557V21.5908H27.8225V22.3154ZM16.2484 35.7309L28.0951 22.1917L27.5498 21.7145L15.703 35.2537L16.2484 35.7309ZM14.5694 36.4927C15.2127 36.4927 15.8247 36.215 16.2484 35.7309L15.703 35.2537C15.417 35.5806 15.0038 35.7681 14.5694 35.7681V36.4927ZM12.4805 33.4785C11.9336 34.9369 13.0118 36.4927 14.5694 36.4927V35.7681C13.5177 35.7681 12.7897 34.7176 13.159 33.7329L12.4805 33.4785ZM16.8502 21.8259L12.4805 33.4785L13.159 33.7329L17.5287 22.0803L16.8502 21.8259ZM6.55657 22.3154H17.1895V21.5908H6.55657V22.3154ZM6.19426 21.9528V21.9531H6.91888V21.9528H6.19426ZM3.25848 25.7633L6.81276 22.209L6.30038 21.6966L2.7461 25.2509L3.25848 25.7633ZM0.877675 24.7771C0.877675 26.0196 2.37991 26.6419 3.25848 25.7633L2.7461 25.2509C2.32401 25.673 1.6023 25.3741 1.6023 24.7771H0.877675Z" fill="#007AFF" mask="url(#path-1-outside-1)"/>
<defs>
<linearGradient id="paint0_linear" x1="41.8529" y1="0.687013" x2="1.05622" y2="35.9707" gradientUnits="userSpaceOnUse">
<stop stop-color="#19A3EC" stop-opacity="0.25"/>
<stop offset="1" stop-color="#1775E4"/>
</linearGradient>
</defs>
</svg>
