<svg width="40" height="40" viewBox="0 0 40 40" fill="none" xmlns="http://www.w3.org/2000/svg">
<path fill-rule="evenodd" clip-rule="evenodd" d="M20 40C31.0457 40 40 31.0457 40 20C40 8.95431 31.0457 0 20 0C8.95431 0 0 8.95431 0 20C0 31.0457 8.95431 40 20 40Z" fill="url(#paint0_linear)"/>
<path d="M14.4479 26.515C15.3763 26.515 16.0434 25.9741 16.0434 24.8564V14.7512C16.0434 13.6334 15.3763 13.0925 14.4479 13.0925C13.5104 13.0925 12.8433 13.6334 12.8433 14.7512V24.8564C12.8433 25.9741 13.5104 26.515 14.4479 26.515ZM20 15.4904C20.9285 15.4904 21.6316 14.8143 21.6316 13.9309C21.6316 13.0384 20.9285 12.3624 20 12.3624C19.0715 12.3624 18.3594 13.0384 18.3594 13.9309C18.3594 14.8143 19.0715 15.4904 20 15.4904ZM20 26.515C21.0006 26.515 21.5956 25.911 21.5956 24.8564V17.9423C21.5956 16.8966 21.0006 16.2836 20 16.2836C18.9904 16.2836 18.4045 16.8966 18.4045 17.9423V24.8564C18.4045 25.911 18.9904 26.515 20 26.515ZM25.5522 26.515C26.4807 26.515 27.1477 25.9741 27.1477 24.8564V14.7512C27.1477 13.6334 26.4807 13.0925 25.5522 13.0925C24.6147 13.0925 23.9476 13.6334 23.9476 14.7512V24.8564C23.9476 25.9741 24.6147 26.515 25.5522 26.515Z" fill="white"/>
<defs>
<linearGradient id="paint0_linear" x1="20" y1="0" x2="20" y2="40" gradientUnits="userSpaceOnUse">
<stop stop-color="#565866"/>
<stop offset="1" stop-color="#454752"/>
</linearGradient>
</defs>
</svg>
