<svg width="40" height="40" viewBox="0 0 40 40" fill="none" xmlns="http://www.w3.org/2000/svg">
<path d="M12.082 13.7143C14.6804 9.21376 15.9796 6.96349 17.6757 6.20831C19.1552 5.54961 20.8447 5.54961 22.3242 6.20831C24.0203 6.96349 25.3195 9.21376 27.9179 13.7143L31.8769 20.5714C34.4752 25.072 35.7744 27.3222 35.5804 29.1687C35.4111 30.7793 34.5663 32.2425 33.2561 33.1944C31.7541 34.2857 29.1557 34.2857 23.9589 34.2857H19.9999H16.041C10.8442 34.2857 8.24583 34.2857 6.74374 33.1944C5.43355 32.2425 4.58881 30.7793 4.41953 29.1687C4.22545 27.3222 5.52464 25.072 8.12303 20.5714L12.082 13.7143Z" fill="#3126D1"/>
</svg>
