<svg width="16" height="16" viewBox="0 0 16 16" fill="none" xmlns="http://www.w3.org/2000/svg">
<g clip-path="url(#clip0_103_66)">
<path fill-rule="evenodd" clip-rule="evenodd" d="M13.691 0.273806C12.8196 0 12.0259 0 10.4126 0H5.57266C3.96855 0 3.1656 0 2.30896 0.266396C1.84131 0.435737 1.4166 0.705813 1.06491 1.0575C0.713223 1.40919 0.443147 1.8339 0.273806 2.30155C0 3.16753 0 3.96855 0 5.57266V10.4126C0 12.0259 0 12.8196 0.266396 13.6836C0.435743 14.1513 0.705822 14.576 1.05751 14.9277C1.4092 15.2794 1.8339 15.5494 2.30155 15.7188C3.16748 15.9926 3.96855 15.9926 5.57261 15.9926H10.42C12.0259 15.9926 12.827 15.9926 13.691 15.7188C14.1587 15.5494 14.5834 15.2793 14.9351 14.9277C15.2868 14.576 15.5568 14.1513 15.7262 13.6836C16 12.8178 16 12.0167 16 10.4126V5.58002C16 3.97413 16 3.17301 15.7262 2.30896C15.5568 1.84131 15.2868 1.41661 14.9351 1.06492C14.5834 0.713232 14.1587 0.443153 13.691 0.273806ZM10.5458 6.02965C9.94584 5.5219 9.18563 5.24273 8.39965 5.24152C7.75206 5.24152 7.10452 5.45615 7.10452 6.05188C7.10452 6.59494 7.68111 6.80748 8.39133 7.06927C8.4602 7.09465 8.53032 7.1205 8.60129 7.14715C10.0055 7.62082 11.1619 8.20173 11.1619 9.57822C11.1619 11.0732 10.0018 12.0944 8.10362 12.211L7.93157 13.0121C7.91585 13.0847 7.87565 13.1497 7.81771 13.1962C7.75976 13.2427 7.68759 13.2678 7.6133 13.2674H6.41997C6.37175 13.2663 6.32437 13.2545 6.28118 13.233C6.238 13.2115 6.20006 13.1808 6.17006 13.143C6.14006 13.1053 6.11872 13.0614 6.10756 13.0144C6.09639 12.9675 6.09568 12.9187 6.10546 12.8715L6.29045 12.0259C5.57395 11.8432 4.91526 11.4824 4.37559 10.9769C4.34464 10.947 4.32003 10.9113 4.30322 10.8717C4.2864 10.8321 4.27774 10.7896 4.27774 10.7466C4.27774 10.7036 4.2864 10.661 4.30322 10.6214C4.32003 10.5819 4.34464 10.5461 4.37559 10.5162L5.03795 9.86878C5.09816 9.80957 5.17922 9.77639 5.26367 9.77639C5.34811 9.77639 5.42918 9.80957 5.48939 9.86878C6.09613 10.4476 6.90623 10.7646 7.7447 10.7512C8.6087 10.7512 9.19519 10.3849 9.19519 9.80397C9.19519 9.27874 8.71421 9.10281 7.80155 8.76898C7.70479 8.73358 7.60318 8.69642 7.49678 8.65687C6.3238 8.23873 5.2137 7.64112 5.2137 6.25169C5.2137 4.64392 6.5569 3.8595 8.14062 3.78174L8.30713 2.96585C8.32314 2.8939 8.36321 2.82955 8.42074 2.78346C8.47827 2.73736 8.5498 2.71228 8.62352 2.71235H9.81315C9.86099 2.71222 9.90827 2.72276 9.95154 2.74319C9.9948 2.76362 10.033 2.79343 10.0633 2.83047C10.0936 2.8675 10.1152 2.91082 10.1267 2.95727C10.1382 3.00373 10.1391 3.05215 10.1295 3.09903L9.94449 4.01119C10.5501 4.20915 11.1113 4.52335 11.5967 4.9362C11.6298 4.96464 11.6567 4.99963 11.6756 5.03897C11.6945 5.07831 11.7051 5.12114 11.7067 5.16477C11.7082 5.2084 11.7007 5.25187 11.6847 5.29247C11.6686 5.33306 11.6443 5.36989 11.6133 5.40063L10.9954 6.02041C10.9358 6.07905 10.856 6.11267 10.7724 6.11439C10.6888 6.11611 10.6078 6.08579 10.5458 6.02965Z" fill="black"/>
</g>
<defs>
<clipPath id="clip0_103_66">
<rect width="16" height="16" fill="white"/>
</clipPath>
</defs>
</svg>
