<svg width="16" height="16" viewBox="0 0 16 16" fill="none" xmlns="http://www.w3.org/2000/svg">
<g clip-path="url(#clip0_103_29)">
<g clip-path="url(#clip1_103_29)">
<path fill-rule="evenodd" clip-rule="evenodd" d="M8 16C12.4183 16 16 12.4183 16 8C16 3.58172 12.4183 0 8 0C3.58172 0 0 3.58172 0 8C0 12.4183 3.58172 16 8 16ZM8.79748 13.4426C11.4571 13.0563 13.5 10.7667 13.5 8C13.5 5.23328 11.4571 2.9437 8.79748 2.55739C8.56029 2.52294 8.44169 2.50572 8.31907 2.55332C8.22063 2.59153 8.11669 2.68146 8.06473 2.77338C8 2.88789 8 3.02526 8 3.3V12.7C8 12.9747 8 13.1121 8.06473 13.2266C8.11669 13.3185 8.22063 13.4085 8.31907 13.4467C8.44169 13.4943 8.56029 13.4771 8.79748 13.4426Z" fill="black"/>
</g>
</g>
<defs>
<clipPath id="clip0_103_29">
<rect width="16" height="16" fill="white"/>
</clipPath>
<clipPath id="clip1_103_29">
<rect width="16" height="16" fill="white"/>
</clipPath>
</defs>
</svg>
