<svg width="16" height="16" viewBox="0 0 16 16" fill="none" xmlns="http://www.w3.org/2000/svg">
<g clip-path="url(#clip0_103_116)">
<path d="M15.9556 2.68737C15.9554 1.98 15.6744 1.30166 15.1742 0.80147C14.674 0.301283 13.9956 0.0201933 13.2883 0.0199944C11.9945 0.0068694 10.9258 0.931244 10.6606 2.14587H10.5946C10.4716 1.5445 10.1451 1.0039 9.67003 0.615186C9.19497 0.226469 8.60044 0.0133872 7.98661 0.0118459C7.37279 0.0103045 6.77719 0.220398 6.30019 0.606724C5.82318 0.993051 5.49392 1.532 5.36789 2.13275H5.30189C5.20373 1.65871 4.97877 1.2202 4.65101 0.863938C4.32325 0.507682 3.90497 0.247036 3.44074 0.109782C2.97651 -0.027472 2.48374 -0.0361906 2.01495 0.0845555C1.54616 0.205302 1.11891 0.450987 0.778754 0.795426C0.438595 1.13987 0.198271 1.57015 0.0833952 2.04042C-0.0314801 2.51068 -0.0166009 3.00331 0.126447 3.46578C0.269495 3.92826 0.53535 4.34325 0.895677 4.66653C1.256 4.98981 1.69729 5.20927 2.17252 5.3015V5.35437C1.56291 5.47326 1.01361 5.8004 0.618695 6.27977C0.22378 6.75914 0.00782712 7.36091 0.00782712 7.982C0.00782712 8.60309 0.22378 9.20486 0.618695 9.68423C1.01361 10.1636 1.56291 10.4907 2.17252 10.6096V10.6621C1.69681 10.7525 1.25462 10.9705 0.893243 11.2928C0.531863 11.6151 0.264889 12.0295 0.120874 12.4918C-0.0231406 12.9541 -0.0387779 13.4469 0.0756344 13.9174C0.190047 14.3879 0.430205 14.8185 0.770423 15.163C1.11064 15.5076 1.53812 15.7532 2.00714 15.8735C2.47616 15.9939 2.96908 15.9845 3.43317 15.8464C3.89727 15.7082 4.31508 15.4465 4.64193 15.0893C4.96878 14.732 5.19236 14.2926 5.28877 13.8181H5.35477C5.60564 15.0327 6.68827 15.9556 7.96927 15.9556C8.58545 15.9584 9.1834 15.7466 9.66043 15.3566C10.1375 14.9665 10.4638 14.4226 10.5834 13.8181H10.6494C10.9003 15.0327 11.9829 15.9556 13.2639 15.9556C13.9278 15.954 14.5673 15.7053 15.0579 15.258C15.5485 14.8107 15.8549 14.1967 15.9176 13.5358C15.9802 12.8748 15.7945 12.2142 15.3967 11.6827C14.9989 11.1512 14.4174 10.7868 13.7656 10.6606V10.6081C14.3753 10.4892 14.9246 10.1621 15.3195 9.68273C15.7144 9.20336 15.9303 8.60159 15.9303 7.9805C15.9303 7.35941 15.7144 6.75764 15.3195 6.27827C14.9246 5.7989 14.3753 5.47176 13.7656 5.35287V5.3C14.3797 5.19174 14.9359 4.87042 15.3365 4.39256C15.7371 3.9147 15.9563 3.31091 15.9556 2.68737ZM12.2716 11.6525C12.2718 11.734 12.2558 11.8148 12.2247 11.8901C12.1936 11.9655 12.1479 12.034 12.0902 12.0916C12.0325 12.1493 11.9641 12.195 11.8887 12.2261C11.8133 12.2573 11.7326 12.2732 11.651 12.2731H4.32314C4.2416 12.2732 4.16083 12.2573 4.08547 12.2261C4.0101 12.195 3.94163 12.1493 3.88397 12.0916C3.82631 12.034 3.7806 11.9655 3.74946 11.8901C3.71832 11.8148 3.70237 11.734 3.70252 11.6525V4.32462C3.70237 4.24308 3.71832 4.16231 3.74946 4.08694C3.7806 4.01158 3.82631 3.9431 3.88397 3.88544C3.94163 3.82778 4.0101 3.78208 4.08547 3.75094C4.16083 3.7198 4.2416 3.70385 4.32314 3.704H11.651C11.7326 3.70385 11.8133 3.7198 11.8887 3.75094C11.9641 3.78208 12.0325 3.82778 12.0902 3.88544C12.1479 3.9431 12.1936 4.01158 12.2247 4.08694C12.2558 4.16231 12.2718 4.24308 12.2716 4.32462V11.6525Z" fill="black"/>
</g>
<defs>
<clipPath id="clip0_103_116">
<rect width="16" height="16" fill="white"/>
</clipPath>
</defs>
</svg>
