<svg width="16" height="16" viewBox="0 0 16 16" fill="none" xmlns="http://www.w3.org/2000/svg">
<g clip-path="url(#clip0_103_39)">
<path d="M12.6667 3C12.6667 4.38071 11.5474 5.5 10.1667 5.5L7.66667 5.5L7.66667 0.5L10.1667 0.5C11.5474 0.5 12.6667 1.61929 12.6667 3V3Z" stroke="black"/>
<path d="M2.66667 3C2.66667 4.38071 3.78596 5.5 5.16667 5.5L7.66667 5.5L7.66667 0.5L5.16667 0.5C3.78596 0.5 2.66667 1.61929 2.66667 3V3Z" stroke="black"/>
<path d="M2.66667 8C2.66667 9.38071 3.78596 10.5 5.16667 10.5H7.66667L7.66667 5.5L5.16667 5.5C3.78596 5.5 2.66667 6.61929 2.66667 8V8Z" stroke="black"/>
<path d="M2.66667 13C2.66667 14.3807 3.78596 15.5 5.16667 15.5V15.5C6.54738 15.5 7.66667 14.3807 7.66667 13L7.66667 10.5H5.16667C3.78596 10.5 2.66667 11.6193 2.66667 13V13Z" stroke="black"/>
<path d="M7.66667 8C7.66667 9.38071 8.78596 10.5 10.1667 10.5V10.5C11.5474 10.5 12.6667 9.38071 12.6667 8V8C12.6667 6.61929 11.5474 5.5 10.1667 5.5V5.5C8.78596 5.5 7.66667 6.61929 7.66667 8V8Z" stroke="black"/>
</g>
<defs>
<clipPath id="clip0_103_39">
<rect width="16" height="16" fill="white"/>
</clipPath>
</defs>
</svg>
