<svg width="16" height="16" viewBox="0 0 16 16" fill="none" xmlns="http://www.w3.org/2000/svg">
<g clip-path="url(#clip0_103_58)">
<path fill-rule="evenodd" clip-rule="evenodd" d="M2.67339 1.12612e-07H13.3258C14.0349 -0.000205574 14.7152 0.281363 15.2167 0.782746C15.7182 1.28413 16 1.96423 16 2.67339V13.325C16 14.802 14.8027 15.9992 13.3258 15.9992H2.67339C1.19679 15.9988 0 14.8017 0 13.325V2.67339C0 1.19691 1.19691 1.12612e-07 2.67339 1.12612e-07ZM12.2491 13.0906C12.7151 13.0906 13.0929 12.7128 13.0929 12.2468L13.0906 3.75314C13.0906 3.28714 12.7128 2.90937 12.2468 2.90937H3.75392C3.53001 2.90937 3.31527 2.99837 3.15701 3.15678C2.99874 3.31519 2.90994 3.53001 2.91015 3.75392V12.2468C2.91015 12.7128 3.28792 13.0906 3.75392 13.0906H12.2491Z" fill="black"/>
<path d="M6.30234 10.1688C6.03635 10.1667 5.82184 9.95049 5.82185 9.68446V6.29381C5.82123 6.16494 5.87198 6.04114 5.96289 5.9498C6.0538 5.85846 6.17736 5.80711 6.30622 5.80711H9.70155C9.83034 5.80731 9.95376 5.85873 10.0447 5.95002C10.1355 6.04133 10.1863 6.16501 10.1859 6.29381V9.68366C10.1863 9.81246 10.1355 9.93616 10.0447 10.0274C9.95376 10.1188 9.83034 10.1702 9.70155 10.1704L6.30234 10.1688Z" fill="black"/>
</g>
<defs>
<clipPath id="clip0_103_58">
<rect width="16" height="16" fill="white"/>
</clipPath>
</defs>
</svg>
