<svg width="16" height="16" viewBox="0 0 16 16" fill="none" xmlns="http://www.w3.org/2000/svg">
<g clip-path="url(#clip0_103_107)">
<mask id="mask0_103_107" style="mask-type:luminance" maskUnits="userSpaceOnUse" x="0" y="3" width="16" height="11">
<path d="M16 3H0V13.5416H16V3Z" fill="white"/>
</mask>
<g mask="url(#mask0_103_107)">
<path d="M10.7269 3H5.27308C2.36557 3 0 5.36457 0 8.27079C0 11.1771 2.36557 13.5416 5.27308 13.5416H10.7269C13.6345 13.5416 16 11.1771 16 8.27079C16 5.36457 13.6345 3 10.7269 3ZM15.1818 7.8709H13.1994C13.0675 6.14241 12.0885 4.64707 10.6775 3.79932H10.7264C13.058 3.79932 14.9791 5.59171 15.1818 7.8709ZM7.99972 12.6838C7.60666 12.6838 7.11765 12.0338 6.80349 10.8844H9.19548C8.88185 12.0338 8.39278 12.6838 7.99972 12.6838ZM6.63167 10.0941C6.55924 9.66528 6.5108 9.18846 6.49429 8.67021H9.50568C9.48869 9.18846 9.44078 9.66475 9.36835 10.0941H6.63167ZM6.49429 7.8709C6.51127 7.35265 6.55924 6.87584 6.63167 6.44694H9.36835C9.44078 6.87584 9.48922 7.35265 9.50568 7.8709H6.49429ZM6.80395 5.65661C7.11765 4.5073 7.60712 3.85774 8.00025 3.85774C8.39337 3.85774 8.88232 4.50782 9.19654 5.65661H6.80395ZM9.42175 4.09241C10.2829 4.38597 11.0246 4.93865 11.5546 5.65661H10.0137C9.86781 5.06051 9.67002 4.5223 9.42175 4.09241ZM5.98631 5.65661H4.4454C4.97538 4.93865 5.71709 4.38597 6.57821 4.09241C6.32994 4.5223 6.13169 5.06051 5.98631 5.65661ZM3.98037 6.44694H5.82897C5.75607 6.90881 5.71061 7.39006 5.69462 7.8709H3.60377C3.64923 7.36712 3.77961 6.8878 3.98037 6.44694ZM5.69462 8.67021C5.71061 9.15099 5.75555 9.63178 5.82897 10.0941H3.98037C3.77961 9.65325 3.64923 9.17399 3.60377 8.67021H5.69462ZM5.98684 10.8844C6.13268 11.4806 6.33047 12.0188 6.57874 12.4487C5.71761 12.1551 4.97584 11.6024 4.44592 10.8844H5.98684ZM10.0146 10.8844H11.5556C11.0256 11.6024 10.2839 12.1551 9.4228 12.4487C9.67101 12.0188 9.86933 11.4806 10.0146 10.8844ZM12.0211 10.0941H10.1725C10.2454 9.6323 10.2909 9.15099 10.3069 8.67021H12.3977C12.3523 9.17399 12.2219 9.65325 12.0211 10.0941ZM10.3069 7.8709C10.2909 7.39006 10.2459 6.90928 10.1725 6.44694H12.0211C12.2219 6.8878 12.3523 7.36712 12.3977 7.8709H10.3069ZM5.27308 3.79984H5.32198C3.91098 4.64707 2.93197 6.14241 2.80013 7.87136H0.818156C1.02094 5.59224 2.94148 3.79984 5.27308 3.79984ZM0.818156 8.67074H2.8006C2.93249 10.3992 3.91145 11.8945 5.32251 12.7423H5.27354C2.94195 12.7423 1.02094 10.9499 0.818156 8.67074ZM10.7269 12.7423H10.678C12.089 11.895 13.068 10.3997 13.1999 8.67074H15.1823C14.9796 10.9494 13.0585 12.7423 10.7269 12.7423Z" fill="black"/>
</g>
</g>
<defs>
<clipPath id="clip0_103_107">
<rect width="16" height="16" fill="white"/>
</clipPath>
</defs>
</svg>
